<svg width="571" height="493" viewBox="0 0 571 493" fill="none" xmlns="http://www.w3.org/2000/svg">
<g id="me 1">
<g id="undraw dev productivity umsq (1) 1">
<path id="Vector" d="M369.413 446.298C369.413 446.298 366.012 447.463 360.48 449.113C348.253 452.778 325.627 458.859 306.453 460.073C289.945 461.131 275.995 458.587 273.444 447.82C272.351 443.19 273.901 439.382 277.282 436.252C287.372 426.899 313.728 423.548 334.632 422.398C340.535 422.077 345.995 421.927 350.54 421.869C358.258 421.769 363.318 421.927 363.318 421.927L363.439 422.398L369.413 446.298Z" fill="#A0616A"/>
<path id="Vector 2" d="M312.292 480.558C299.157 496.82 244.93 462.753 225.963 450.049C221.832 447.284 219.374 445.533 219.374 445.533L236.726 422.398L242.221 415.075C242.221 415.075 247.138 417.683 254.406 421.927C254.67 422.084 254.935 422.241 255.206 422.398C261.474 426.078 269.342 430.886 277.282 436.252C288.237 443.661 299.314 452.114 306.453 460.073C313.435 467.854 316.644 475.163 312.292 480.558Z" fill="#A0616A"/>
<g id="me">
<path id="Vector 3" d="M310.635 137.148C339.658 136.902 362.986 113.18 362.74 84.1637C362.494 55.1468 338.767 31.8237 309.744 32.0698C280.721 32.3159 257.393 56.0379 257.64 85.0547C257.885 114.071 281.612 137.394 310.635 137.148Z" fill="#D7A2A2"/>
<path id="Vector 4" d="M271.191 111.211C271.191 111.211 281.724 185.748 266.563 194.253C251.402 202.758 357.271 202.622 357.271 202.622C357.271 202.622 333.112 138.1 343.607 118.212L271.191 111.211Z" fill="#D7A2A2"/>
<path id="Vector 5" d="M434.575 202.344L426.111 242.5L408.214 327.458L407.697 332.107L401.728 385.925L397.758 421.677L395.096 445.693C377.749 454.793 365.174 461.081 365.174 461.081C365.174 461.081 364.042 455.646 362.232 448.694C350.036 452.463 327.462 458.735 308.3 460.112C315.348 467.833 318.618 475.116 314.312 480.546C301.315 496.919 246.801 463.313 227.728 450.771C227.312 453.816 227.17 456.892 227.305 459.963L212.696 448.926L213.915 423.236L215.969 379.769L218.552 325.258C217.572 322.933 216.747 320.546 216.082 318.112C211.503 302.345 205.84 270.833 201.478 244.404C197.968 223.135 195.313 205.158 194.752 201.333C194.677 200.834 194.639 200.577 194.639 200.577L274.682 164.4C280.504 177.591 307.2 181.345 307.2 181.345C329.276 179.636 346.493 167.844 346.493 167.844L434.575 202.344Z" fill="white"/>
<path id="Vector 6" d="M266.051 35.2824L256.192 31.433C256.192 31.433 276.545 8.64537 305.146 10.3694L297.031 1.5888C297.031 1.5888 316.616 -6.44328 334.655 14.0522C344.139 24.8263 355.112 37.4921 362.008 51.8062L372.53 51.7171L368.221 61.4223L383.673 70.96L367.882 69.3572C368.867 74.6438 369.057 80.0475 368.446 85.3897C367.815 90.7342 365.131 95.6241 360.962 99.0273C360.962 99.0273 348.562 73.9136 348.529 69.9805L348.612 79.8124C348.612 79.8124 338.712 71.0471 338.662 65.148L333.36 72.0759L330.589 61.2833L297.631 72.3788L302.916 63.4845L282.396 66.6083L290.344 55.7249C290.344 55.7249 267.228 68.7033 266.427 79.5259C265.625 90.349 258.915 100.654 258.915 100.654C258.915 100.654 240.272 50.2499 266.051 35.2824Z" fill="#2F2E41"/>
<path id="Vector 7" d="M493.258 386.128C487.954 391.974 474.765 400.825 458.766 410.42C452.814 413.986 446.478 417.663 440.013 421.319C424.585 430.045 408.429 438.699 395.096 445.693C377.749 454.793 365.174 461.081 365.174 461.081C365.174 461.081 364.041 455.646 362.232 448.694C359.809 439.39 356.176 427.367 352.451 422.062C352.321 421.877 352.19 421.707 352.06 421.536C350.976 420.137 349.89 419.325 348.826 419.334L401.728 385.925L424.589 371.483L407.696 332.106L386.509 282.713L398.705 242.732L410.964 202.544L434.575 202.344C434.575 202.344 442.538 219.339 452.737 243.046C454.261 246.591 455.836 250.286 457.44 254.102C478.432 303.941 504.664 373.563 493.258 386.128Z" fill="#EEEEEE"/>
<path id="Vector 8" d="M255.93 422.408C253.991 422.417 252.056 422.591 250.146 422.928C233.741 425.89 229.022 440.799 227.728 450.771C227.312 453.816 227.17 456.892 227.305 459.963L212.696 448.926L207.374 444.905C194.609 440.576 183.201 432.792 173.289 423.58C164.689 415.446 156.96 406.439 150.227 396.703C143.523 387.107 137.532 377.032 132.305 366.559C130.847 363.636 130.049 360.429 129.968 357.164C129.887 353.898 130.525 350.655 131.837 347.664L149.471 307.466L175.243 248.714C175.424 247.319 175.625 245.955 175.844 244.622C180.801 214.713 194.645 201.334 194.645 201.334L205.307 201.243L212.805 244.308L222.12 297.811L216.082 318.111L202.129 364.995L215.969 379.769L255.93 422.408Z" fill="#EEEEEE"/>
</g>
<path id="Vector 9" d="M266.474 297.09L275.589 307.722C278.975 307.077 282.512 306.318 286.155 305.466L283.536 297.09L289.938 304.557C328.527 295.068 376.358 276.619 376.358 276.619C376.358 276.619 324.719 280.405 286.163 271.983C269.105 268.257 251.553 276.712 244.552 292.705C240.483 302.001 241.123 310.055 255.554 310.055C260.43 309.972 265.292 309.515 270.099 308.687L266.474 297.09Z" fill="#38D39F"/>
<path id="Vector 10" d="M474.273 471.841V476.178C474.276 477.368 474.055 478.549 473.623 479.658C473.431 480.152 473.199 480.63 472.93 481.087C472.078 482.516 470.869 483.699 469.422 484.521C467.976 485.343 466.34 485.774 464.675 485.774H145.551C143.888 485.774 142.252 485.343 140.805 484.521C139.358 483.699 138.149 482.516 137.297 481.087C137.028 480.63 136.796 480.152 136.604 479.658C136.172 478.549 135.952 477.368 135.954 476.178V471.841C135.954 470.581 136.202 469.333 136.684 468.169C137.166 467.004 137.873 465.946 138.764 465.055C139.656 464.164 140.714 463.457 141.878 462.975C143.043 462.493 144.291 462.245 145.551 462.245H163.946V460.223C163.946 460.17 163.957 460.118 163.977 460.07C163.997 460.021 164.026 459.978 164.064 459.94C164.101 459.903 164.145 459.873 164.194 459.853C164.242 459.833 164.294 459.823 164.347 459.823H173.944C173.997 459.823 174.049 459.833 174.098 459.853C174.146 459.873 174.191 459.903 174.228 459.94C174.265 459.978 174.294 460.021 174.314 460.07C174.334 460.118 174.344 460.17 174.344 460.223V462.245H180.34V460.223C180.34 460.17 180.351 460.118 180.371 460.07C180.391 460.021 180.42 459.978 180.457 459.94C180.495 459.903 180.539 459.873 180.588 459.853C180.636 459.833 180.688 459.823 180.74 459.823H190.338C190.391 459.823 190.443 459.833 190.492 459.853C190.54 459.873 190.584 459.903 190.621 459.94C190.659 459.978 190.688 460.021 190.708 460.07C190.728 460.118 190.738 460.17 190.738 460.223V462.245H196.741V460.223C196.741 460.17 196.752 460.118 196.772 460.07C196.792 460.021 196.821 459.978 196.859 459.94C196.896 459.903 196.94 459.873 196.989 459.853C197.037 459.833 197.089 459.823 197.141 459.823H206.739C206.792 459.823 206.844 459.833 206.893 459.853C206.941 459.873 206.985 459.903 207.022 459.94C207.06 459.978 207.089 460.021 207.109 460.07C207.129 460.118 207.139 460.17 207.139 460.223V462.245H213.135V460.223C213.135 460.17 213.146 460.118 213.166 460.07C213.186 460.021 213.215 459.978 213.252 459.94C213.29 459.903 213.334 459.873 213.382 459.853C213.431 459.833 213.483 459.823 213.535 459.823H223.133C223.186 459.823 223.238 459.833 223.287 459.853C223.335 459.873 223.379 459.903 223.416 459.94C223.453 459.978 223.483 460.021 223.503 460.07C223.523 460.118 223.533 460.17 223.533 460.223V462.245H229.529V460.223C229.529 460.17 229.539 460.118 229.56 460.07C229.58 460.021 229.609 459.978 229.646 459.94C229.683 459.903 229.728 459.873 229.776 459.853C229.825 459.833 229.877 459.823 229.929 459.823H239.527C239.58 459.823 239.632 459.833 239.681 459.853C239.729 459.873 239.773 459.903 239.81 459.94C239.847 459.978 239.877 460.021 239.897 460.07C239.917 460.118 239.927 460.17 239.927 460.223V462.245H245.93V460.223C245.93 460.17 245.941 460.118 245.961 460.07C245.981 460.021 246.01 459.978 246.047 459.94C246.085 459.903 246.129 459.873 246.177 459.853C246.226 459.833 246.278 459.823 246.33 459.823H255.928C255.981 459.823 256.033 459.833 256.082 459.853C256.13 459.873 256.174 459.903 256.211 459.94C256.249 459.978 256.278 460.021 256.298 460.07C256.318 460.118 256.328 460.17 256.328 460.223V462.245H262.324V460.223C262.324 460.17 262.335 460.118 262.355 460.07C262.375 460.021 262.404 459.978 262.441 459.94C262.478 459.903 262.523 459.873 262.571 459.853C262.62 459.833 262.672 459.823 262.724 459.823H337.905C337.958 459.823 338.01 459.833 338.058 459.853C338.107 459.873 338.151 459.903 338.188 459.94C338.226 459.978 338.255 460.021 338.275 460.07C338.295 460.118 338.305 460.17 338.305 460.223V462.245H344.308V460.223C344.308 460.17 344.318 460.118 344.339 460.07C344.359 460.021 344.388 459.978 344.425 459.94C344.462 459.903 344.507 459.873 344.555 459.853C344.604 459.833 344.656 459.823 344.708 459.823H354.306C354.412 459.824 354.513 459.867 354.588 459.942C354.662 460.016 354.705 460.118 354.706 460.223V462.245H360.702V460.223C360.702 460.17 360.713 460.118 360.733 460.07C360.753 460.021 360.782 459.978 360.819 459.94C360.856 459.903 360.901 459.873 360.949 459.853C360.998 459.833 361.05 459.823 361.102 459.823H370.7C370.753 459.823 370.805 459.833 370.853 459.853C370.902 459.873 370.946 459.903 370.983 459.94C371.021 459.978 371.05 460.021 371.07 460.07C371.09 460.118 371.1 460.17 371.1 460.223V462.245H377.096V460.223C377.096 460.17 377.107 460.118 377.127 460.07C377.147 460.021 377.176 459.978 377.213 459.94C377.25 459.903 377.294 459.873 377.343 459.853C377.392 459.833 377.444 459.823 377.496 459.823H387.094C387.147 459.823 387.199 459.833 387.247 459.853C387.296 459.873 387.34 459.903 387.377 459.94C387.415 459.978 387.444 460.021 387.464 460.07C387.484 460.118 387.494 460.17 387.494 460.223V462.245H393.497V460.223C393.497 460.17 393.508 460.118 393.528 460.07C393.548 460.021 393.577 459.978 393.614 459.94C393.651 459.903 393.696 459.873 393.744 459.853C393.793 459.833 393.845 459.823 393.897 459.823H403.495C403.6 459.825 403.701 459.868 403.774 459.943C403.848 460.017 403.889 460.118 403.888 460.223V462.245H409.891V460.223C409.891 460.17 409.902 460.118 409.922 460.07C409.942 460.021 409.971 459.978 410.008 459.94C410.045 459.903 410.089 459.873 410.138 459.853C410.187 459.833 410.239 459.823 410.291 459.823H419.889C419.942 459.823 419.994 459.833 420.042 459.853C420.091 459.873 420.135 459.903 420.172 459.94C420.21 459.978 420.239 460.021 420.259 460.07C420.279 460.118 420.289 460.17 420.289 460.223V462.245H426.285V460.223C426.285 460.17 426.295 460.118 426.315 460.07C426.335 460.021 426.365 459.978 426.402 459.94C426.439 459.903 426.483 459.873 426.532 459.853C426.581 459.833 426.633 459.823 426.685 459.823H436.283C436.335 459.823 436.388 459.833 436.436 459.853C436.485 459.873 436.529 459.903 436.566 459.94C436.603 459.978 436.633 460.021 436.653 460.07C436.673 460.118 436.683 460.17 436.683 460.223V462.245H464.675C465.936 462.245 467.184 462.493 468.349 462.975C469.513 463.457 470.572 464.164 471.463 465.055C472.354 465.946 473.061 467.004 473.543 468.169C474.026 469.333 474.274 470.581 474.273 471.841Z" fill="#3F3D56"/>
<path id="Vector 11" d="M567.069 479.658H43.2359V481.087H567.069V479.658Z" fill="#3F3D56"/>
<path id="Vector 12" d="M448.577 289.196H329.63V286.745H275.695V289.196H156.257C154.124 289.196 152.077 290.043 150.568 291.552C149.059 293.061 148.211 295.106 148.211 297.24V460.081C148.211 462.215 149.059 464.26 150.568 465.769C152.077 467.278 154.124 468.125 156.257 468.125H448.577C450.711 468.125 452.758 467.278 454.267 465.769C455.776 464.26 456.623 462.215 456.623 460.081V297.24C456.623 296.184 456.416 295.138 456.011 294.162C455.607 293.186 455.014 292.299 454.267 291.552C453.52 290.805 452.633 290.213 451.657 289.808C450.681 289.404 449.634 289.196 448.577 289.196Z" fill="#3F3D56"/>
<path id="Vector 13" d="M302.651 363.91C312.519 363.91 320.518 355.912 320.518 346.047C320.518 336.182 312.519 328.185 302.651 328.185C292.784 328.185 284.785 336.182 284.785 346.047C284.785 355.912 292.784 363.91 302.651 363.91Z" stroke="#D0CDE1" stroke-width="2" stroke-miterlimit="10"/>
<path id="Vector 14" d="M296.934 370.34C306.801 370.34 314.8 362.343 314.8 352.478C314.8 342.613 306.801 334.616 296.934 334.616C287.067 334.616 279.068 342.613 279.068 352.478C279.068 362.343 287.067 370.34 296.934 370.34Z" fill="#D0CDE1"/>
<path id="Vector 15" d="M77.5002 472.439H57.4904V492.445H77.5002V472.439Z" fill="#D0CDE1"/>
<path id="Vector 16" d="M65.3543 456.72V481.013H89.652V456.72H65.3543ZM88.5943 479.955H66.4048V457.778H88.5943V479.955Z" fill="#3F3D56"/>
<path id="Vector 17" d="M540.589 472.439H520.579V492.445H540.589V472.439Z" fill="#D0CDE1"/>
<path id="Vector 18" d="M528.443 456.72V481.013H552.741V456.72H528.443ZM551.683 479.955H529.493V457.778H551.683V479.955Z" fill="#3F3D56"/>
<path id="Vector 19" d="M67.5911 164.414C98.9059 164.414 124.291 139.035 124.291 107.726C124.291 76.4186 98.9059 51.0381 67.5911 51.0381C36.2765 51.0381 10.891 76.4186 10.891 107.726C10.891 139.035 36.2765 164.414 67.5911 164.414Z" fill="#38D39F"/>
<path id="Vector 20" d="M87.3501 40.3616C82.2161 39.7089 77.02 39.7089 71.886 40.3616C60.4488 41.8631 49.6822 46.6134 40.864 54.0489C32.0458 61.4844 25.5462 71.293 22.1364 82.311C20.5855 87.3318 19.7073 92.5368 19.5246 97.7884C19.4989 98.5186 19.4817 99.2574 19.4817 99.9961C19.4976 115.936 25.8386 131.22 37.1129 142.492C48.3872 153.764 63.6739 160.104 79.6184 160.12C80.8983 160.12 82.1783 160.076 83.441 159.999C86.4054 159.813 89.3519 159.406 92.2555 158.78C106.121 155.799 118.486 148.015 127.169 136.803C135.85 125.591 140.29 111.672 139.703 97.5047C139.116 83.337 133.54 69.8331 123.961 59.3772C114.382 48.9212 101.414 42.1862 87.3501 40.3616ZM98.4407 155.293H98.4321C93.589 156.945 88.5479 157.947 83.441 158.273C82.1783 158.359 80.8983 158.402 79.6184 158.402C64.1305 158.383 49.2825 152.223 38.3311 141.275C27.3796 130.325 21.2188 115.481 21.1998 99.9961C21.1998 99.2574 21.2171 98.5186 21.2428 97.7884C21.8334 82.6983 28.2396 68.4211 39.1204 57.946C50.0012 47.4709 64.513 41.6099 79.6184 41.5899C93.4582 41.5906 106.848 46.5038 117.404 55.454C127.958 64.4043 134.993 76.8101 137.252 90.462C139.512 104.113 136.851 118.124 129.743 129.996C122.636 141.869 111.542 150.834 98.4407 155.293Z" fill="#3F3D56"/>
<path id="Vector 21" d="M80.4774 45.0256H78.7594V57.0504H80.4774V45.0256Z" fill="#3F3D56"/>
<path id="Vector 22" d="M41.3477 60.5188L40.1327 61.7335L48.6373 70.2363L49.8522 69.0216L41.3477 60.5188Z" fill="#3F3D56"/>
<path id="Vector 23" d="M24.6363 99.1366V100.855H36.6636V99.1366H24.6363Z" fill="#3F3D56"/>
<path id="Vector 24" d="M40.1328 138.259L41.3478 139.473L49.8524 130.971L48.6374 129.756L40.1328 138.259Z" fill="#3F3D56"/>
<path id="Vector 25" d="M109.385 69.0216L110.6 70.2362L119.104 61.7335L117.889 60.5188L109.385 69.0216Z" fill="#3F3D56"/>
<path id="Vector 26" d="M122.573 99.1366V100.855H134.6V99.1366H122.573Z" fill="#3F3D56"/>
<path id="Vector 27" d="M110.6 129.755L109.385 130.97L117.889 139.473L119.104 138.259L110.6 129.755Z" fill="#3F3D56"/>
<path id="Vector 28" d="M80.4774 142.941H78.7594V154.966H80.4774V142.941Z" fill="#3F3D56"/>
<path id="Vector 29" d="M82.1954 96.5601C81.4522 96.0028 80.5482 95.7013 79.6184 95.7013C78.6894 95.7013 77.7846 96.0028 77.0414 96.5601C76.5319 96.9467 76.1131 97.4389 75.8129 98.0034C75.432 98.7293 75.2677 99.5496 75.3384 100.367C75.4092 101.184 75.7122 101.963 76.2124 102.613C76.712 103.264 77.3873 103.757 78.1591 104.036C78.9302 104.314 79.7656 104.366 80.5653 104.185C81.3657 104.004 82.0968 103.599 82.6735 103.015C83.2502 102.432 83.6476 101.696 83.8191 100.894C83.9906 100.092 83.9284 99.2573 83.6412 98.49C83.3532 97.7219 82.8522 97.0524 82.1961 96.5601H82.1954ZM79.6184 102.573C78.9352 102.57 78.2813 102.298 77.7982 101.816C77.3151 101.333 77.0436 100.678 77.0414 99.9961C77.0443 99.4745 77.2029 98.9665 77.4966 98.5357C77.7482 98.1713 78.0898 97.8776 78.4879 97.684C78.8866 97.4897 79.3283 97.4018 79.7706 97.4289C80.2123 97.4554 80.6404 97.5954 81.0127 97.8362C81.3843 98.0763 81.6887 98.4085 81.8946 98.8008C82.1004 99.193 82.2019 99.6317 82.189 100.074C82.1761 100.517 82.0489 100.949 81.8202 101.328C81.5908 101.707 81.2685 102.021 80.8826 102.239C80.4967 102.457 80.0615 102.572 79.6184 102.573Z" fill="#3F3D56"/>
<path id="Vector 30" d="M87.3501 25.2707H71.8867V40.7311H87.3501V25.2707Z" fill="#3F3D56"/>
<path id="Vector 31" d="M79.6184 27.8472C91.0055 27.8472 100.237 24.5786 100.237 20.5465C100.237 16.5144 91.0055 13.2457 79.6184 13.2457C68.2311 13.2457 59 16.5144 59 20.5465C59 24.5786 68.2311 27.8472 79.6184 27.8472Z" fill="#3F3D56"/>
<path id="clock arrow" d="M82.184 61.4464H77.1815V96.4565H82.184V61.4464Z" fill="#3F3D56"/>
<path id="Vector 32" d="M161.509 157.503H0V159.22H161.509V157.503Z" fill="#3F3D56"/>
<g id="plant left">
<path id="Vector 33" d="M107.621 428.52C108.288 451.348 94.9461 459.714 78.2034 460.203C77.8147 460.214 77.4273 460.221 77.0421 460.223C76.266 460.23 75.4971 460.217 74.7353 460.185C59.5935 459.557 47.6075 451.52 46.9874 430.29C46.3457 408.32 73.6211 379.774 75.6679 377.662L75.6714 377.66C75.7493 377.579 75.7894 377.539 75.7894 377.539C75.7894 377.539 106.954 405.694 107.621 428.52Z" fill="#D0CDE1"/>
<path id="Vector 34" d="M76.9985 456.743L87.6339 440.931L77.02 458.444L77.0421 460.223C76.266 460.23 75.4971 460.217 74.7353 460.185L75.2627 437.312L75.2484 437.136L75.2677 437.102L75.3184 434.941L63.6713 418.034L75.3048 433.323L75.3463 433.78L75.7443 416.499L65.6844 398.971L75.7729 413.463L75.6679 377.662V377.543L75.6714 377.66L76.3389 405.876L85.5078 394.415L76.3689 408.307L76.569 423.764L85.0061 408.678L76.6005 426.037L76.712 434.632L88.9817 413.618L76.7491 437.63L76.9985 456.743Z" fill="#3F3D56"/>
</g>
<g id="plant right">
<path id="Vector 35" d="M570.71 428.52C571.377 451.348 558.035 459.714 541.292 460.203C540.903 460.214 540.516 460.221 540.131 460.223C539.355 460.23 538.586 460.217 537.824 460.185C522.682 459.557 510.696 451.52 510.076 430.29C509.434 408.32 536.71 379.774 538.757 377.662L538.76 377.66C538.838 377.579 538.878 377.539 538.878 377.539C538.878 377.539 570.043 405.694 570.71 428.52Z" fill="#D0CDE1"/>
<path id="Vector 36" d="M540.087 456.743L550.723 440.931L540.109 458.444L540.131 460.223C539.355 460.23 538.586 460.217 537.824 460.185L538.352 437.312L538.337 437.136L538.357 437.102L538.407 434.941L526.76 418.034L538.394 433.323L538.435 433.78L538.833 416.499L528.773 398.971L538.862 413.463L538.757 377.662V377.543L538.76 377.66L539.428 405.876L548.597 394.415L539.459 408.307L539.658 423.764L548.095 408.678L539.689 426.037L539.801 434.632L552.071 413.618L539.838 437.63L540.087 456.743Z" fill="#3F3D56"/>
</g>
</g>
</g>
</svg>
